<svg version="1.0" xmlns="http://www.w3.org/2000/svg"
 width="64" height="64" viewBox="0 0 215 191"
 preserveAspectRatio="xMidYMid meet">

<g transform="translate(0.000000,191.000000) scale(0.100000,-0.100000)"
fill="#C4C4C4" stroke="none">
<path d="M0 955 l0 -955 1075 0 1075 0 0 955 0 955 -1075 0 -1075 0 0 -955z
m1862 713 c79 -45 78 -38 78 -541 l0 -444 -23 -33 c-12 -19 -38 -43 -57 -54
-34 -21 -50 -21 -745 -24 -390 -2 -734 0 -764 3 -68 8 -127 58 -141 120 -12
52 -12 818 0 869 11 51 38 87 81 108 31 17 90 18 783 18 l748 0 40 -22z m-130
-1235 c15 -13 18 -31 18 -98 0 -94 -19 -134 -80 -166 -47 -26 -66 -24 -231 16
-348 83 -651 124 -1041 141 -98 4 -163 11 -174 18 -22 16 -21 62 1 86 18 20
35 20 753 20 670 0 737 -1 754 -17z"/>
<path d="M962 1424 c-59 -22 -145 -103 -170 -162 -32 -73 -37 -139 -17 -208
33 -113 106 -186 219 -219 138 -40 292 30 358 164 33 66 33 207 0 268 -33 63
-74 106 -134 138 -43 24 -67 29 -133 32 -54 2 -94 -2 -123 -13z m183 -123
c108 -49 144 -175 80 -273 -62 -94 -209 -105 -287 -22 -135 145 28 377 207
295z"/>
<path d="M492 1189 c-53 -20 -51 -101 3 -115 58 -15 103 42 71 91 -18 27 -44
35 -74 24z"/>
<path d="M1610 1188 c-30 -11 -40 -25 -40 -60 0 -30 32 -58 66 -58 29 0 54 31
54 67 0 45 -36 68 -80 51z"/>
</g>
</svg>
